
<svg width="88px" height="104px" viewBox="0 0 88 104" version="1.1" xmlns="http://www.w3.org/2000/svg" xmlns:xlink="http://www.w3.org/1999/xlink">
    <!-- Generator: Sketch 48.2 (47327) - http://www.bohemiancoding.com/sketch -->
    <desc>Created with Sketch.</desc>
    <defs></defs>
    <g id="Symbols" stroke="none" stroke-width="1" fill="none" fill-rule="evenodd">
        <g id="Logo" transform="translate(-164.000000, 0.000000)">
            <g id="Beer" transform="translate(208.000000, 52.000000) scale(-1, 1) translate(-208.000000, -52.000000) translate(164.000000, 0.000000)">
                <path d="M19.2001874,103.998725 C12.6270226,103.998725 7.27803078,98.7045363 7.27803078,92.1987172 L7.27803078,37.6727861 C2.78080567,35.0582147 0,30.4310609 0,25.5245944 C0,17.6183854 6.90562446,11.1852642 15.3910764,11.1852642 C15.8498192,11.1852642 16.3150049,11.2031198 16.7814793,11.2413818 C20.7838807,4.29810039 28.4227204,0 36.8076613,0 C45.3871813,0 53.094317,4.43456826 57.0245567,11.5946678 C58.3685698,11.3230075 59.7435094,11.1852642 61.1197376,11.1852642 C70.8551346,11.1852642 78.7748898,17.8607115 78.7748898,26.0666397 C78.7748898,31.0368762 75.8562036,35.6295942 70.9530685,38.4112431 L70.9530685,44.6517788 L77.5223675,44.6517788 C83.297887,44.6517788 88,49.4868229 88,55.4276394 L88,71.970862 C88,77.9116785 83.2991756,82.7467226 77.5223675,82.7467226 L70.9530685,82.7467226 L70.9530685,92.1999926 C70.9530685,98.7058117 65.6053653,104 59.0309118,104 L19.2001874,104 L19.2001874,103.998725 Z" id="Shape-Copy" fill="#000000" fill-rule="nonzero"></path>
                <path d="M12.3808994,92.1987172 C12.3808994,95.9203365 15.4400433,98.9481378 19.2001874,98.9481378 L59.0283346,98.9481378 C62.7884787,98.9481378 65.8476227,95.9203365 65.8476227,92.1987172 L65.8476227,40.3970421 C64.3012989,40.7630821 62.7111625,40.9480152 61.1171604,40.9480152 C60.6816125,40.9480152 60.2434874,40.9327103 59.8014965,40.9046515 L59.8014965,44.617343 C59.8014965,50.4331702 55.7230675,55.1661823 50.7091125,55.1661823 L50.3444378,55.1661823 C45.3304828,55.1661823 41.2533423,50.4331702 41.2533423,44.617343 L41.2533423,42.6902125 C39.7830461,42.9720761 38.2882664,43.114921 36.8050841,43.114921 C31.5875298,43.114921 26.5052789,41.4071594 22.4577763,38.3015587 C20.2980773,39.3257055 17.8819464,39.8677508 15.4400433,39.8677508 C14.4375101,39.8677508 13.4117819,39.7682695 12.3796108,39.569307 L12.3796108,92.1987172 L12.3808994,92.1987172 Z" id="Path" fill="#F3A83B" fill-rule="evenodd"></path>
                <path d="M77.5197903,77.6961358 C80.4848662,77.6961358 82.8932656,75.1274788 82.8932656,71.9695866 L82.8932656,55.426364 C82.8932656,52.2697472 80.4848662,49.7010902 77.5197903,49.7010902 L70.9504913,49.7010902 L70.9504913,52.4266215 L75.0753101,52.4266215 C77.4489171,52.4266215 79.3070829,54.2555462 79.3070829,56.5895295 L79.3070829,70.8076966 C79.3070829,73.1416798 77.4489171,74.9680537 75.0753101,74.9680537 L70.9504913,74.9680537 L70.9504913,77.6961358 L77.5197903,77.6961358 Z" id="Path" fill="#F3A83B" fill-rule="evenodd"></path>
                <polygon id="Path" fill="#FFFFFF" fill-rule="evenodd" points="74.2067915 67.9187423 74.2067915 55.4759329 70.9517799 55.4759329 70.9517799 67.9187423"></polygon>
                <path d="M46.1997397,46.2653402 C46.1997397,49.3741085 48.0269791,52 50.1892552,52 L50.5539299,52 C52.7174946,52 54.5434454,49.3741085 54.5434454,46.2653402 L54.5434454,36.0916733 L57.6412474,36.7927092 C58.7636208,37.0441243 59.8821283,37.1731575 60.9606892,37.1731575 C67.8843541,37.1731575 73.51555,32.5731914 73.51555,26.9196762 C73.51555,21.2648307 67.8843541,16.666195 60.9606892,16.666195 C59.3615327,16.666195 57.779128,16.9216008 56.2598648,17.4284218 L54.0280041,18.1706951 L53.1246933,15.9345636 C50.4405328,9.29268086 43.974322,5 36.6499016,5 C29.5703157,5 23.1852869,9.09048455 20.3851522,15.4197611 L19.5411171,17.3193422 L17.5579568,16.9069682 C16.7860835,16.7433488 16.0039013,16.6622042 15.2333166,16.6622042 C9.55830822,16.6622042 4.94382022,21.0094249 4.94382022,26.3543247 C4.94382022,31.6992245 9.58408029,36.0451149 15.2848608,36.0451149 C17.4239421,36.0451149 19.4779755,35.4358655 21.2253214,34.2798879 L22.8760221,33.1877618 L24.3218349,34.5525869 C27.6541627,37.6986018 32.0302591,39.4305729 36.6486129,39.4305729 C38.7271299,39.4305729 40.7992038,39.0620967 42.805559,38.3371165 L46.1984511,37.1119665 L46.1984511,46.2653402 L46.1997397,46.2653402 Z" id="Path" fill="#FFFFFF" fill-rule="evenodd"></path>
                <path d="M52.4039949,90 C51.3140817,90 50.4269663,88.8951059 50.4269663,87.5376291 L50.4269663,59.4636151 C50.4269663,58.1048941 51.3140817,57 52.4039949,57 C53.4949071,57 54.3820225,58.1061383 54.3820225,59.4636151 L54.3820225,87.5376291 C54.3820225,88.8951059 53.4949071,90 52.4039949,90 Z" id="Shape" fill="#000000" fill-rule="nonzero"></path>
                <path d="M38.5622973,90 C37.4713851,90 36.5842697,88.8951059 36.5842697,87.5376291 L36.5842697,59.4636151 C36.5842697,58.1048941 37.4713851,57 38.5622973,57 C39.6522104,57 40.5393258,58.1061383 40.5393258,59.4636151 L40.5393258,87.5376291 C40.5383268,88.8951059 39.6522104,90 38.5622973,90 Z" id="Shape" fill="#000000" fill-rule="nonzero"></path>
                <path d="M23.7298376,90 C22.6409234,90 21.752809,88.8951059 21.752809,87.5376291 L21.752809,59.4636151 C21.752809,58.1048941 22.6409234,57 23.7298376,57 C24.8207498,57 25.7078652,58.1061383 25.7078652,59.4636151 L25.7078652,87.5376291 C25.7078652,88.8951059 24.8207498,90 23.7298376,90 Z" id="Shape" fill="#000000" fill-rule="nonzero"></path>
            </g>
        </g>
    </g>
</svg>